<?xml version="1.0" standalone="no"?><!DOCTYPE svg PUBLIC "-//W3C//DTD SVG 1.1//EN" "http://www.w3.org/Graphics/SVG/1.1/DTD/svg11.dtd"><svg t="1719366973489" class="icon" viewBox="0 0 1024 1024" version="1.1" xmlns="http://www.w3.org/2000/svg" p-id="27910" xmlns:xlink="http://www.w3.org/1999/xlink" width="48" height="48"><path d="M817 800H207a80 80 0 0 1-80-80V270a80 80 0 0 1 80-80h610a80 80 0 0 1 80 80v450a80 80 0 0 1-80 80z m29-519a40 40 0 0 0-40-40H216a40 40 0 0 0-40 40v430a40 40 0 0 0 40 40h590a40 40 0 0 0 40-40V281zM595 632H429a25 25 0 0 1 0-50h166a25 25 0 0 1 0 50zM457.38 457.151l-143.76 83a25 25 0 0 1-25-43.3L396.612 434.5 288.62 372.151a25 25 0 0 1 25-43.3l143.76 83a26.806 26.806 0 0 1 0 45.3z" fill="#8255FF" p-id="27911"></path></svg>