<?xml version="1.0" standalone="no"?><!DOCTYPE svg PUBLIC "-//W3C//DTD SVG 1.1//EN" "http://www.w3.org/Graphics/SVG/1.1/DTD/svg11.dtd"><svg t="1719363445512" class="icon" viewBox="0 0 1024 1024" version="1.1" xmlns="http://www.w3.org/2000/svg" p-id="14392" xmlns:xlink="http://www.w3.org/1999/xlink" width="48" height="48"><path d="M833.536 926.208H195.072c-69.632 0-125.952-56.832-125.952-125.952v-384c0-24.576 19.968-44.544 44.544-44.544s44.544 19.968 44.544 44.544v383.488c0 20.48 16.384 37.376 36.864 37.376h637.952c20.48 0 36.864-16.896 36.864-37.376V416.256c0-24.576 19.968-44.544 44.544-44.544s44.544 19.968 44.544 44.544v383.488c0.512 69.632-56.32 126.464-125.44 126.464z" fill="#8255FF" p-id="14393"></path><path d="M914.944 460.8c-24.576 0-44.544-19.968-44.544-44.544v-26.624c0-19.456-15.872-35.84-35.84-35.84h-293.888c-41.472 0-80.384-20.48-103.936-54.784-2.048-2.56-3.584-5.632-4.608-8.704l-34.816-89.088c-6.656-7.68-16.384-12.288-27.136-12.288H194.048c-19.968 0-35.84 15.872-35.84 35.84v191.488c0 24.576-19.968 44.544-44.544 44.544s-44.544-19.968-44.544-44.544V224.768c0-69.12 56.32-124.928 124.928-124.928h176.64c40.96 0 79.872 20.48 102.912 54.272 2.048 2.56 3.584 5.632 4.608 8.704l34.816 89.088c6.656 8.192 16.896 12.8 27.648 12.8H834.56c68.608 0 124.928 55.808 124.928 124.928v26.624c0 24.576-19.968 44.544-44.544 44.544z" fill="#8255FF" p-id="14394"></path><path d="M854.528 188.416h-233.984c-16.384 0-29.696-13.312-29.696-29.696v-29.184c0-16.384 13.312-29.696 29.696-29.696h233.984c16.384 0 29.696 13.312 29.696 29.696V158.72c0 16.384-13.312 29.696-29.696 29.696z" fill="#8255FF" p-id="14395"></path></svg>