<?xml version="1.0" standalone="no"?><!DOCTYPE svg PUBLIC "-//W3C//DTD SVG 1.1//EN" "http://www.w3.org/Graphics/SVG/1.1/DTD/svg11.dtd"><svg t="1719363193731" class="icon" viewBox="0 0 1149 1024" version="1.1" xmlns="http://www.w3.org/2000/svg" p-id="13182" xmlns:xlink="http://www.w3.org/1999/xlink" width="53.859375" height="48"><path d="M789.196761 597.335061h-170.670072v-127.999993a42.664958 42.664958 0 0 0-85.329916 0v127.999993H362.526702a42.664958 42.664958 0 0 0 0 85.335036h170.670071v127.999994a42.664958 42.664958 0 0 0 85.329916 0v-127.999994h170.670072a42.664958 42.664958 0 0 0 0-85.335036z m-85.335036-511.999974h341.335023a42.664958 42.664958 0 0 0 0-85.335036h-341.329903-0.00512a42.664958 42.664958 0 0 0 0 85.335036zM1045.191628 256.000038h-303.615985a42.526718 42.526718 0 0 1-32.993278-12.979199l-0.01024 0.01536L478.028776 12.497971A42.536958 42.536958 0 0 0 447.861738 0.000051H106.526715a42.664958 42.664958 0 0 0-42.664958 42.664958v937.727953h0.0256c-0.01024 0.31232-0.0256 0.62464-0.0256 0.94208A42.664958 42.664958 0 0 0 106.526715 1024H1045.196748a42.664958 42.664958 0 0 0 42.664958-42.664958c0-0.31744-0.01536-0.62976-0.02048-0.94208h0.02048V298.664996A42.670078 42.670078 0 0 0 1045.196748 256.000038z m-42.664958 639.999968a42.664958 42.664958 0 0 1-42.664958 42.664958h-767.999962A42.664958 42.664958 0 0 1 149.196793 896.000006V128.000045a42.664958 42.664958 0 0 1 42.664957-42.664958h220.671989c12.144639 0 23.096319 5.07904 30.868479 13.224959l0.00512-0.00512 230.282228 230.282229a42.531838 42.531838 0 0 0 30.167039 12.492799h255.999987A42.664958 42.664958 0 0 1 1002.53179 384.000032v511.999974z" fill="#8255FF" p-id="13183"></path></svg>