<?xml version="1.0" standalone="no"?><!DOCTYPE svg PUBLIC "-//W3C//DTD SVG 1.1//EN" "http://www.w3.org/Graphics/SVG/1.1/DTD/svg11.dtd"><svg t="1719362840380" class="icon" viewBox="0 0 1024 1024" version="1.1" xmlns="http://www.w3.org/2000/svg" p-id="10241" xmlns:xlink="http://www.w3.org/1999/xlink" width="48" height="48"><path d="M579.88 444.12l-45.252 45.252c-49.488-49.488-129.416-49.98-179.512-1.484l-1.508 1.484-135.764 135.764c-49.988 49.988-49.988 131.032 0 181.02 49.488 49.488 129.416 49.984 179.512 1.484l1.508-1.48 135.76-135.768 45.26 45.256-135.768 135.76c-74.98 74.984-196.548 74.984-271.528 0-74.232-74.228-74.972-194.12-2.228-269.264l2.228-2.26 135.764-135.768c74.232-74.228 194.12-74.972 269.268-2.224l2.264 2.224z m271.532-271.532c74.232 74.232 74.972 194.12 2.228 269.268l-2.228 2.26-135.764 135.768c-74.232 74.228-194.12 74.972-269.268 2.224l-2.264-2.224 45.256-45.256c49.488 49.488 129.416 49.98 179.512 1.484l1.508-1.484 135.764-135.764c49.988-49.988 49.988-131.032 0-181.02-49.488-49.488-129.416-49.984-179.512-1.484l-1.508 1.48-135.76 135.768-45.26-45.256 135.768-135.76c74.98-74.984 196.548-74.984 271.528 0z" fill="#8255FF" p-id="10242"></path></svg>